<svg xmlns="http://www.w3.org/2000/svg" viewBox="0 0 512 512">
  <!-- 背景：微信绿圆角矩形 -->
  <rect x="32" y="32" width="448" height="448" rx="96" ry="96" fill="#07C160"/>

  <!-- 文件夹主体 -->
  <path d="M100 168 L100 372 Q100 392 120 392 L392 392 Q412 392 412 372 L412 212 Q412 192 392 192 L228 192 L200 152 Q190 136 170 136 L120 136 Q100 136 100 152 Z" fill="white"/>

  <!-- 文件夹标签（半透明白色） -->
  <path d="M100 168 Q100 148 116 140 L170 140 Q184 140 200 152 L228 192 L120 192 Q100 192 100 172 Z" fill="white" opacity="0.55"/>

  <!-- 迁移轨道弧线 — 从右下绕到左上 -->
  <path d="M380 340 Q380 220 300 140 Q240 80 140 90" fill="none" stroke="white" stroke-width="18" stroke-linecap="round"/>

  <!-- 轨道箭头 -->
  <polygon points="130,82 100,70 120,110" fill="white"/>
</svg>
